<?xml version="1.0" encoding="UTF-8" standalone="no"?>
<!-- Generator: Adobe Illustrator 27.5.0, SVG Export Plug-In . SVG Version: 6.00 Build 0)  -->

<svg
   version="1.1"
   x="0px"
   y="0px"
   viewBox="0 0 290.0701 294.96112"
   xml:space="preserve"
   id="svg220"
   sodipodi:docname="logo_steakhouse.svg"
   inkscape:version="1.4 (86a8ad7, 2024-10-11)"
   width="290.0701"
   height="294.96112"
   inkscape:export-filename="logo_steakhouse.png"
   inkscape:export-xdpi="96"
   inkscape:export-ydpi="96"
   xmlns:inkscape="http://www.inkscape.org/namespaces/inkscape"
   xmlns:sodipodi="http://sodipodi.sourceforge.net/DTD/sodipodi-0.dtd"
   xmlns="http://www.w3.org/2000/svg"
   xmlns:svg="http://www.w3.org/2000/svg"><defs
   id="defs220">
		
		
		
		
		
		
		
		
		
		
	
	
	
	
	
	
	
	
	
	

		
		
		
		
		
	
	
	
	
	
	
	
	
	
	
	
	
	
	
	
	
	
	
	
	

	
	
	
	

		
		
		
		
		
		
		
		
	
			
			
			
			
		
			
			
		</defs><sodipodi:namedview
   id="namedview220"
   pagecolor="#ffffff"
   bordercolor="#000000"
   borderopacity="0.25"
   inkscape:showpageshadow="2"
   inkscape:pageopacity="0.0"
   inkscape:pagecheckerboard="0"
   inkscape:deskcolor="#d1d1d1"
   showgrid="false"
   inkscape:zoom="1.106"
   inkscape:cx="84.086799"
   inkscape:cy="118.89693"
   inkscape:window-width="1366"
   inkscape:window-height="697"
   inkscape:window-x="-8"
   inkscape:window-y="-8"
   inkscape:window-maximized="1"
   inkscape:current-layer="svg220" />


<circle
   style="fill:#ffffff;fill-opacity:1;stroke:none;stroke-width:28.6034;stroke-linecap:round;stroke-linejoin:round;paint-order:stroke fill markers"
   id="path469"
   cx="145.36977"
   cy="148.87094"
   r="144.66547" /><g
   id="g15"
   transform="translate(1.594054,9.040767)">
				
					<text
   transform="scale(0.99983799,1.000162)"
   style="font-size:42.3079px;font-family:Poppins-Black;letter-spacing:-0.864525;fill:#2d2c29;stroke-width:0.864525"
   id="text14"
   x="60.603275"
   y="202.95561">PuraBrasa</text>
			</g><g
   id="g16"
   transform="translate(-5.455227,9.680104)">
				
					<text
   style="font-size:18.8296px;font-family:BebasNeueBook;letter-spacing:3;fill:#2d2c29"
   id="text15"
   x="73.384293"
   y="229.98289">STEAK HOUSE</text>
			</g><g
   id="g468"
   transform="translate(-97.849062,-57.277356)"><g
     id="g467"><circle
       style="opacity:0.3;fill:#000000;fill-opacity:1"
       cx="243.78827"
       cy="172.02696"
       r="47.5"
       id="circle1" /><g
       id="g465"><path
         style="fill:#ffb861;fill-opacity:1"
         d="m 213.36381,185.4483 c 0,0 -8.244,-10.215 -3.151,-20.4 5.092,-10.185 -1.019,-21.389 -1.019,-21.389 0,0 11.204,3.055 11.204,11.204 0,8.149 3.055,10.185 9.167,8.148 6.111,-2.037 1.018,-11.204 -1.019,-24.444 -2.037,-13.241 15.278,-19.352 12.223,-28.519 0,0 8.148,12.222 6.111,20.37 -2.037,8.148 -4.074,21.389 2.037,23.426 6.111,2.037 10.185,-13.241 6.111,-17.315 0,0 7.13,3.055 8.148,9.167 1.018,6.111 -11.204,23.426 0,25.463 11.204,2.037 8.148,-13.241 8.148,-13.241 0,0 10.185,12.222 7.129,22.407 -3.055,10.185 -65.089,5.123 -65.089,5.123 z"
         id="path1" /></g></g><g
     id="g466"><g
       id="g464"><g
         id="g463"><g
           id="g462"
           transform="translate(-14.13902,-30.74141)"><path
             style="fill:#b36041;fill-opacity:1"
             d="m 228.6507,207.98971 c 0,0 -4.8,-4.2 0,-11.8 0,0 2.6,7.4 14.4,3.4 11.8,-4 5.2,-11.6 5.2,-20.4 0,-8.8 4.8,-13.8 4.8,-13.8 0,0 -5.6,20.8 4.2,24 9.8,3.2 12.6,-4 12.6,-4 0,0 2.8,3.8 -3.8,8.6 -6.6,4.8 -2.8,11.6 9.2,11.4 12,-0.2 11.2,-6.2 11.2,-6.2 0,0 5.6,7.4 1.2,11.4 -4.4,4 -59,-2.6 -59,-2.6 z"
             id="path4" /></g></g><g
         id="g14"
         transform="translate(105.82791,66.647205)">
			<g
   id="g10">
				<path
   style="fill:#97311b"
   d="m 197.36,142.458 c -0.326,1.966 -0.86,3.838 -1.716,5.218 -2.968,4.79 -13.196,7.43 -28.398,6.888 -15.202,-0.544 -27.286,10.782 -45.25,9.63 C 111.19,163.5 97.46,157.29 88.234,152.45 c -5.556,-2.916 -9.256,-8.364 -10.008,-14.494 -0.102,-0.818 -0.15,-1.648 -0.142,-2.484 l 0.034,-2.372 c 44.894,16.418 119.59,-0.912 119.59,-0.912 0,0 0.458,5.42 -0.348,10.27 z"
   id="path5" />
				<path
   style="fill:#65111b"
   d="m 197.36,142.458 c -0.326,1.966 -0.86,3.838 -1.716,5.218 -2.968,4.79 -13.196,7.43 -28.398,6.888 -15.202,-0.544 -27.286,10.782 -45.25,9.63 C 111.19,163.5 97.46,157.29 88.234,152.45 c -5.556,-2.916 -9.256,-8.364 -10.008,-14.494 3.744,4.85 12.927,11.151 29.792,16.644 21.862,7.121 29.218,2.138 41.4,-1.6 11.512,-3.533 14.4,-2.6 29.4,-3 9.784,-0.26 15.484,-3.33 18.542,-7.542 z"
   id="path6" />
				<path
   style="fill:#f4f3e3"
   d="m 118.585,112.014 c 0,0 -37.522,10.809 -40.275,19.517 -2.753,8.707 27.463,18.324 42.988,21.066 15.526,2.742 38.604,-11.252 54.012,-6.946 15.408,4.307 25.775,-8.023 21.189,-16.759 -4.586,-8.736 -45.556,-21.784 -77.914,-16.878 z"
   id="path7" />
				<path
   style="fill:#d25534"
   d="m 146.61,116.541 c -17.94,-2.597 -36.272,0.587 -52.172,9.292 -3.71,2.031 -6.574,3.984 -7.27,5.453 -2.385,5.035 27.204,14.283 37.515,15.861 10.311,1.579 19.408,-7.364 30.267,-7.749 10.86,-0.386 29.043,3.189 32.763,-0.943 3.721,-4.132 2.73,-9.622 -4.224,-13.154 -4.178,-2.123 -20.501,-6.39 -36.879,-8.76 z"
   id="path8" />
				<path
   style="fill:#97311b"
   d="m 91.318,134.1 c 0,0 25.8,10.4 35.4,10.8 9.6,0.4 19.555,-9.787 29.877,-8.994 10.323,0.794 21.123,3.794 23.523,0.994 0,0 -3.6,1.2 -15,-2.8 -11.4,-4 -19.6,-4.4 -30.2,1.6 -10.6,6 -22.6,1.6 -43.6,-1.6 z"
   id="path9" />
				<path
   style="fill:#fc7459"
   d="m 91.318,131.9 c 0,0 11.8,-12 38.2,-13.6 26.4,-1.6 54.2,8.6 56.8,12 2.6,3.4 -2.4,7.8 -2.4,7.8 0,0 0.6,-6.2 -11.8,-10.6 -14.4,-5.11 -35.4,-12.4 -80.8,4.4 z"
   id="path10" />
			</g>
			<path
   style="fill:#f4f3e3"
   d="m 99.913,118.339 c 0,0 -2.194,15.561 9.406,15.561 11.6,0 18.4,-8.4 30.8,-2.4 12.4,6 11.6,11 11.6,11 l 7.6,-3 c 0,0 -7,-12.2 -23.2,-14.4 -16.2,-2.2 -23.6,5.8 -27,2.6 -3.4,-3.2 -1.2,-9.4 -1.2,-9.4 z"
   id="path11" />
			<path
   style="fill:#ceccba"
   d="m 156.596,135.906 c -2.648,-0.204 -5.274,0.316 -7.874,1.194 -1.432,-1.376 -3.544,-2.942 -6.652,-4.608 3.132,-1.006 6.154,-1.424 9.248,-1.346 2.248,1.63 3.998,3.326 5.278,4.76 z"
   id="path12" />
			<path
   style="fill:#f4f3e3"
   d="m 165.118,118.3 c 0,0 2.8,24.4 19.8,24.2 l 3.8,-2.2 c 0,0 -15.068,2.316 -19.734,-19.442 z"
   id="path13" />
			<path
   style="fill:#ceccba"
   d="m 178.804,137.706 c -1.2,0.396 -2.944,0.434 -5.046,0.28 -0.58,-0.564 -1.122,-1.166 -1.63,-1.796 2.63,0.62 4.5,0.828 5.764,0.87 0.304,0.23 0.608,0.446 0.912,0.646 z"
   id="path14" />
		</g></g><g
       id="g461"
       transform="translate(-9.4954157,-30.74141)"><polygon
         style="fill:#b37c41;fill-opacity:1"
         points="70.157,96.698 65.205,91.87 72.049,90.876 75.11,84.674 78.171,90.876 85.015,91.87 80.062,96.698 81.231,103.515 75.11,100.296 68.988,103.515 "
         id="polygon17"
         transform="translate(112.67866,109.05181)" /><polygon
         style="fill:#b37c41;fill-opacity:1"
         points="81.231,103.515 75.11,100.296 68.988,103.515 70.157,96.698 65.205,91.87 72.049,90.876 75.11,84.674 78.171,90.876 85.015,91.87 80.062,96.698 "
         id="polygon17-3"
         transform="translate(179.60449,37.182001)" /><polygon
         style="fill:#b37c41;fill-opacity:1"
         points="91.957,70.498 87.005,65.67 93.849,64.676 96.91,58.474 99.971,64.676 106.815,65.67 101.862,70.498 103.031,77.314 96.91,74.096 90.788,77.314 "
         id="polygon18"
         transform="translate(111.39999,91.15037)" /><polygon
         style="fill:#b37c41;fill-opacity:1"
         points="201.462,96.698 206.415,91.87 199.571,90.876 196.51,84.674 193.449,90.876 186.605,91.87 191.557,96.698 190.388,103.515 196.51,100.296 202.632,103.515 "
         id="polygon19"
         transform="translate(122.26872,114.80584)" /><polygon
         style="fill:#b37c41;fill-opacity:1"
         points="179.662,70.498 184.615,65.67 177.771,64.676 174.71,58.474 171.649,64.676 164.805,65.67 169.757,70.498 168.588,77.314 174.71,74.096 180.832,77.314 "
         id="polygon20"
         transform="translate(126.10474,96.904403)" /></g></g></g><g
   id="g460"
   transform="matrix(2.2399236,0,0,2.277692,-386.44069,-801.82332)"><path
     style="fill:#4d4d4d"
     d="m 237.27405,481.53325 c -35.703,0 -64.75,-29.047 -64.75,-64.75 0,-35.703 29.047,-64.75 64.75,-64.75 35.703,0 64.75,29.047 64.75,64.75 0,35.703 -29.047,64.75 -64.75,64.75 z m 0,-127.5 c -34.601,0 -62.75,28.149 -62.75,62.75 0,34.601 28.149,62.75 62.75,62.75 34.601,0 62.75,-28.149 62.75,-62.75 0,-34.601 -28.15,-62.75 -62.75,-62.75 z"
     id="path93-2" /><path
     style="fill:#4d4d4d"
     d="m 237.27405,477.53325 c -33.498,0 -60.75,-27.252 -60.75,-60.75 0,-33.498 27.252,-60.75 60.75,-60.75 33.498,0 60.75,27.252 60.75,60.75 0,33.498 -27.253,60.75 -60.75,60.75 z m 0,-118.5 c -31.843,0 -57.75,25.906 -57.75,57.75 0,31.844 25.907,57.75 57.75,57.75 31.843,0 57.75,-25.906 57.75,-57.75 0,-31.843 -25.907,-57.75 -57.75,-57.75 z"
     id="path94-9" /></g></svg>
